<svg width="64" height="64" version="1.1" viewBox="0 0 16.9 16.9" xmlns="http://www.w3.org/2000/svg" xmlns:xlink="http://www.w3.org/1999/xlink">
 <defs>
  <linearGradient id="linearGradient844" x1="8.68" x2="8.68" y1=".505" y2="15.6" gradientUnits="userSpaceOnUse">
   <stop stop-color="#f8fbfc" offset="0"/>
   <stop stop-color="#bfd2e7" offset="1"/>
  </linearGradient>
 </defs>
 <rect x="-1.73e-18" y="-1.73e-18" width="16.9" height="16.9" ry="4.23" fill="url(#linearGradient844)"/>
 <text fill="#000000" font-family="sans-serif" font-size="10.6px" letter-spacing="0px" word-spacing="0px" style="line-height:1.25;shape-inside:url(#rect848);white-space:pre" xml:space="preserve"/>
 <path transform="matrix(1.38 0 0 1.38 13.3 -1.63)" d="m1.13 10.8h-3.24v-.367q.176-.0052.45-.0362.279-.031.382-.0878.16-.0982.233-.222.0775-.129.0775-.32v-5.33h-.0775l-2.5 6.25h-.258l-2.38-6.38h-.0672v4.38q0 .636.0775.966.0827.331.248.475.114.109.47.207.357.0982.465.103v.367h-2.96v-.367q.233-.0207.486-.0775.258-.0568.398-.171.181-.145.248-.444.0672-.3.0672-1v-3.75q0-.326-.0775-.532t-.222-.336q-.16-.14-.393-.207-.233-.0672-.46-.0775v-.367h2.5l2.1 5.5 1.79-4.6q.0982-.253.165-.527.0723-.279.0775-.372h2.39v.367q-.145.00517-.372.0465-.222.0413-.326.0775-.176.062-.238.207-.062.145-.062.315v5.29q0 .181.062.305.062.124.238.217.093.0517.331.0982.238.0413.377.0465z" fill="#800000" style="white-space:pre" aria-label="M"/>
 <path transform="matrix(1.52 0 0 1.52 13.6 -2.75)" d="m1.13 10.8h-3.24v-.367q.176-.0052.45-.0362.279-.031.382-.0878.16-.0982.233-.222.0775-.129.0775-.32v-5.33h-.0775l-2.5 6.25h-.258l-2.38-6.38h-.0672v4.38q0 .636.0775.966.0827.331.248.475.114.109.47.207.357.0982.465.103v.367h-2.96v-.367q.233-.0207.486-.0775.258-.0568.398-.171.181-.145.248-.444.0672-.3.0672-1v-3.75q0-.326-.0775-.532t-.222-.336q-.16-.14-.393-.207-.233-.0672-.46-.0775v-.367h2.5l2.1 5.5 1.79-4.6q.0982-.253.165-.527.0723-.279.0775-.372h2.39v.367q-.145.00517-.372.0465-.222.0413-.326.0775-.176.062-.238.207-.062.145-.062.315v5.29q0 .181.062.305.062.124.238.217.093.0517.331.0982.238.0413.377.0465z" fill="#ff2929" style="white-space:pre" aria-label="M"/>
</svg>
